<?xml version="1.0" standalone="no"?>
<!DOCTYPE svg PUBLIC "-//W3C//DTD SVG 20010904//EN"
 "http://www.w3.org/TR/2001/REC-SVG-20010904/DTD/svg10.dtd">
<svg version="1.0" xmlns="http://www.w3.org/2000/svg"
 width="1080.000000pt" height="1080.000000pt" viewBox="0 0 1080.000000 1080.000000"
 preserveAspectRatio="xMidYMid meet">
<metadata>
Created by potrace 1.11, written by Peter Selinger 2001-2013
</metadata>
<g transform="translate(0.000000,1080.000000) scale(0.100000,-0.100000)"
fill="#000000" stroke="none">
<path d="M5180 10365 c-540 -48 -958 -146 -1441 -336 -610 -241 -1159 -597
-1638 -1064 -634 -618 -1069 -1349 -1320 -2220 -55 -189 -114 -490 -145 -735
-80 -631 -25 -1365 145 -1950 215 -743 546 -1358 1038 -1929 105 -123 352
-369 486 -487 497 -435 1092 -772 1735 -982 928 -303 1979 -322 2906 -53 928
269 1730 775 2365 1491 941 1061 1384 2480 1214 3895 -177 1465 -973 2750
-2215 3573 -602 398 -1352 678 -2056 767 -354 45 -773 56 -1074 30z"/>
<path d="M3510 10138 c-19 -16 -26 -26 -15 -20 18 9 64 53 54 52 -2 -1 -20
-15 -39 -32z"/>
<path d="M10259 483 l-34 -38 38 34 c34 33 42 41 34 41 -2 0 -19 -17 -38 -37z"/>
</g>
</svg>
